<?xml version="1.0" encoding="UTF-8"?>
<!-- Frienddy resting mascot. Converted verbatim from wearos/app/src/main/res/drawable/ic_frienddy_small.xml (Android VectorDrawable); full-canvas clip-path dropped (no-op). -->
<svg xmlns="http://www.w3.org/2000/svg" viewBox="0 0 32 32" width="32" height="32">
  <path d="M12.696,11.688C13.445,11.602 14.111,12.166 14.404,12.815C14.584,13.279 14.689,13.791 14.588,14.285C14.517,14.725 14.309,15.139 14.005,15.464C13.666,15.809 13.174,16.014 12.688,15.962C12.14,15.93 11.645,15.584 11.351,15.132C10.855,14.253 10.96,13.063 11.606,12.286C11.883,11.967 12.272,11.735 12.696,11.688ZM12.9,12.717C12.476,12.86 12.201,13.283 12.116,13.707C11.966,14.335 12.337,15.116 13.005,15.253C13.436,15.367 13.899,15.129 14.118,14.753C14.463,14.187 14.394,13.354 13.871,12.917C13.614,12.684 13.228,12.609 12.9,12.717Z" fill="#EFE8F2"/>
  <path d="M19.684,11.728C20.049,11.634 20.445,11.708 20.774,11.885C21.352,12.229 21.715,12.865 21.814,13.52C21.894,14.008 21.852,14.527 21.621,14.971C21.301,15.683 20.45,16.115 19.687,15.926C19.096,15.77 18.595,15.304 18.404,14.722C18.171,14.128 18.21,13.454 18.451,12.869C18.654,12.326 19.112,11.864 19.684,11.728ZM19.374,12.704C19.039,12.82 18.757,13.089 18.646,13.428C18.462,13.942 18.532,14.588 18.941,14.978C19.155,15.2 19.475,15.306 19.779,15.275C20.093,15.232 20.383,15.042 20.551,14.773C20.897,14.24 20.845,13.478 20.41,13.01C20.151,12.738 19.743,12.577 19.374,12.704Z" fill="#EFE8F2"/>
  <path d="M16.13,20.239C16.783,20.117 17.475,20.294 18.01,20.681C18.525,21.019 18.911,21.519 19.184,22.065C19.637,22.895 19.816,23.861 19.747,24.8C19.684,25.597 19.318,26.389 18.66,26.865C17.82,27.461 16.722,27.566 15.731,27.379C14.941,27.233 14.186,26.767 13.786,26.059C13.434,25.483 13.363,24.785 13.38,24.123C13.423,23.13 13.733,22.135 14.347,21.346C14.776,20.773 15.419,20.351 16.13,20.239Z" fill="#D79AE4"/>
  <path d="M12.443,0.491C12.904,0.407 13.376,0.444 13.836,0.512C15.988,0.849 17.99,2.018 19.357,3.712C19.382,3.349 19.417,2.986 19.418,2.622C19.432,2.379 19.397,2.111 19.538,1.897C19.662,1.691 19.941,1.631 20.159,1.703C20.383,1.776 20.571,1.926 20.745,2.081C21.704,2.915 22.303,4.119 22.503,5.365C23.047,5.226 23.642,5.184 24.17,5.412C24.603,5.57 24.942,5.949 25.053,6.397C25.168,6.86 25.134,7.354 25.012,7.813C24.89,8.263 24.653,8.669 24.402,9.058C25.461,10.018 26.345,11.181 26.937,12.484C27.122,12.914 27.301,13.353 27.373,13.818C27.388,13.985 27.406,14.17 27.314,14.32C27.208,14.478 26.999,14.519 26.822,14.498C26.473,14.457 26.133,14.365 25.787,14.308C26.128,15.077 26.424,15.87 26.62,16.69C26.801,17.4 26.917,18.133 26.886,18.868C26.868,19.069 26.831,19.311 26.64,19.423C26.476,19.529 26.266,19.514 26.095,19.435C25.777,19.295 25.452,19.168 25.136,19.023C25.294,20.088 25.347,21.178 25.175,22.245C25.112,22.663 25.042,23.083 24.924,23.492C24.889,23.618 24.801,23.719 24.72,23.82C24.847,24.501 25.017,25.206 24.876,25.899C24.749,26.461 24.448,27.018 23.933,27.31C23.463,27.594 22.766,27.596 22.401,27.141C22.349,27.149 22.298,27.157 22.247,27.166C22.174,27.877 22.04,28.581 21.863,29.274C22.129,29.573 22.403,29.883 22.545,30.262C22.67,30.601 22.531,31.008 22.211,31.182C21.647,31.495 20.985,31.537 20.354,31.552C19.721,31.562 19.084,31.487 18.479,31.297C18.153,31.198 17.869,30.973 17.696,30.681C17.409,30.203 17.329,29.641 17.274,29.097C16.741,29.11 16.207,29.101 15.674,29.105C15.618,29.683 15.521,30.282 15.198,30.777C15.013,31.069 14.697,31.252 14.369,31.337C13.415,31.595 12.401,31.623 11.431,31.437C11.108,31.353 10.764,31.256 10.525,31.009C10.331,30.817 10.306,30.509 10.396,30.261C10.534,29.884 10.784,29.559 11.052,29.266C10.891,28.56 10.758,27.848 10.656,27.132C10.488,27.287 10.299,27.432 10.069,27.476C9.529,27.613 8.975,27.33 8.628,26.925C8.406,26.664 8.276,26.339 8.175,26.016C8.005,25.884 7.857,25.725 7.752,25.536C7.218,24.618 7.047,23.537 7.05,22.488C6.75,22.675 6.5,22.966 6.142,23.041C5.926,23.091 5.702,22.953 5.617,22.755C5.489,22.457 5.481,22.125 5.458,21.807C5.437,20.257 5.873,18.744 6.448,17.318C6.049,17.417 5.653,17.534 5.258,17.65C5.049,17.717 4.791,17.683 4.643,17.508C4.519,17.348 4.522,17.133 4.532,16.942C4.628,15.955 4.971,15.013 5.379,14.116C5.754,13.293 6.229,12.521 6.737,11.774C6.275,11.693 5.805,11.661 5.349,11.549C5.152,11.506 4.979,11.356 4.932,11.157C4.851,10.883 4.991,10.614 5.118,10.38C5.735,9.305 6.661,8.388 7.798,7.877C7.6,7.261 7.521,6.539 7.88,5.966C8.086,5.605 8.47,5.393 8.859,5.283C8.492,4.848 8.107,4.43 7.742,3.994C7.598,3.835 7.411,3.65 7.458,3.414C7.486,3.168 7.693,2.991 7.914,2.908C8.371,2.727 8.864,2.66 9.351,2.607C9.755,2.585 10.161,2.531 10.566,2.583C11.414,2.602 12.241,2.823 13.037,3.104C12.823,2.564 12.558,2.044 12.278,1.534C12.158,1.32 11.993,1.093 12.057,0.833C12.081,0.64 12.265,0.521 12.443,0.491ZM12.862,1.129C12.98,1.406 13.148,1.658 13.278,1.93C13.482,2.346 13.682,2.765 13.843,3.2C13.958,3.522 14.069,3.853 14.075,4.199C13.806,4.281 13.577,4.1 13.344,3.998C12.292,3.526 11.144,3.251 9.988,3.267C9.43,3.296 8.868,3.356 8.329,3.508C8.745,4.067 9.237,4.565 9.675,5.106C9.8,5.287 10.03,5.306 10.222,5.373C10.653,5.509 11.028,5.773 11.377,6.053C11.707,6.32 11.968,6.658 12.214,7C12.386,7.24 12.52,7.508 12.59,7.797C12.479,7.805 12.368,7.824 12.257,7.816C12.066,7.712 11.944,7.522 11.794,7.371C11.401,6.957 10.995,6.54 10.493,6.258C10.134,6.063 9.729,5.914 9.314,5.939C9,5.965 8.651,6.086 8.492,6.378C8.318,6.731 8.383,7.14 8.48,7.504C8.673,8.187 9.127,8.759 9.624,9.249C9.765,9.389 9.929,9.507 10.053,9.663C10.046,9.813 9.984,9.952 9.94,10.094C9.766,10.61 9.674,11.149 9.605,11.688C9.491,12.489 9.496,13.307 9.315,14.098C9.227,14.617 9.014,15.128 9.087,15.663C9.167,16.188 9.371,16.706 9.728,17.106C10.311,17.801 11.125,18.25 11.952,18.591C12.068,18.619 12.086,18.775 11.985,18.834C11.156,19.553 10.492,20.451 9.989,21.424C9.521,22.301 9.166,23.241 8.952,24.212C8.861,24.721 8.776,25.249 8.888,25.761C9,26.237 9.356,26.704 9.869,26.767C9.947,26.481 9.906,26.182 9.946,25.892C10.031,25.895 10.132,25.864 10.2,25.931C10.357,26.049 10.497,26.196 10.681,26.273C10.81,26.333 10.955,26.333 11.095,26.338C11.045,25.934 10.916,25.545 10.875,25.14C10.713,24.021 10.928,22.873 11.372,21.842C11.423,21.737 11.47,21.626 11.557,21.546C11.703,21.436 11.966,21.447 12.053,21.627C12.127,21.763 12.036,21.91 11.995,22.042C11.705,22.764 11.512,23.533 11.489,24.314C11.498,24.901 11.601,25.489 11.791,26.045C11.861,26.258 11.936,26.493 11.849,26.713C11.776,26.887 11.589,26.964 11.434,27.05C11.457,27.427 11.543,27.795 11.606,28.165C11.68,28.591 11.796,29.009 11.931,29.42C11.742,29.641 11.541,29.851 11.356,30.075C11.271,30.182 11.181,30.297 11.168,30.438C11.222,30.605 11.411,30.652 11.559,30.703C12.019,30.831 12.503,30.841 12.978,30.826C13.426,30.794 13.889,30.755 14.298,30.552C14.489,30.461 14.634,30.294 14.713,30.1C14.904,29.643 14.944,29.143 14.958,28.654C14.962,28.548 14.955,28.38 15.102,28.376C15.583,28.355 16.065,28.356 16.546,28.358C16.981,28.364 17.415,28.323 17.849,28.354C17.94,28.343 17.99,28.428 17.99,28.509C18.03,29.085 18.025,29.696 18.302,30.22C18.409,30.438 18.636,30.558 18.858,30.628C19.418,30.806 20.014,30.852 20.597,30.818C20.961,30.787 21.343,30.773 21.67,30.594C21.769,30.549 21.83,30.425 21.77,30.326C21.602,29.992 21.283,29.772 21.07,29.473C21.005,29.39 21.065,29.284 21.081,29.194C21.301,28.498 21.421,27.776 21.513,27.053C21.362,26.956 21.183,26.858 21.13,26.674C21.062,26.463 21.14,26.246 21.198,26.043C21.397,25.392 21.513,24.708 21.471,24.026C21.421,23.518 21.32,23.014 21.167,22.528C21.093,22.282 20.962,22.056 20.901,21.806C20.859,21.641 21.004,21.476 21.17,21.475C21.34,21.447 21.487,21.573 21.551,21.722C21.941,22.545 22.148,23.453 22.152,24.363C22.143,25.025 22.015,25.677 21.87,26.32C22.231,26.415 22.549,26.163 22.798,25.935C22.859,25.855 23.003,25.865 23.044,25.961C23.088,26.175 23.041,26.397 23.081,26.612C23.091,26.674 23.132,26.729 23.192,26.75C23.432,26.732 23.638,26.581 23.795,26.41C24.069,26.105 24.164,25.682 24.166,25.282C24.138,24.763 24.043,24.25 23.908,23.748C23.688,22.948 23.388,22.167 22.986,21.441C22.529,20.575 21.959,19.759 21.239,19.092C21.132,18.99 21.013,18.9 20.914,18.789C20.87,18.751 20.878,18.658 20.929,18.629C21.072,18.537 21.236,18.484 21.389,18.409C21.843,18.195 22.273,17.927 22.667,17.615C23.21,17.151 23.683,16.542 23.79,15.817C23.851,15.474 23.797,15.125 23.715,14.791C23.579,14.228 23.451,13.659 23.421,13.079C23.339,12.061 23.227,11.033 22.896,10.061C22.854,9.929 22.797,9.802 22.78,9.664C22.859,9.556 22.971,9.476 23.069,9.386C23.389,9.106 23.646,8.765 23.89,8.42C24.19,7.958 24.412,7.418 24.392,6.858C24.379,6.602 24.316,6.312 24.086,6.161C23.658,5.857 23.081,5.896 22.614,6.085C22.002,6.321 21.539,6.806 21.087,7.263C20.907,7.436 20.784,7.668 20.576,7.81C20.448,7.831 20.32,7.8 20.192,7.794C20.328,7.291 20.646,6.867 20.972,6.471C21.218,6.172 21.529,5.937 21.833,5.7C21.682,4.468 21.118,3.246 20.126,2.47C20.094,3.335 20.085,4.221 19.79,5.046C19.757,5.121 19.726,5.217 19.633,5.235C19.524,5.243 19.468,5.133 19.412,5.06C18.887,4.231 18.265,3.447 17.483,2.847C16.875,2.356 16.187,1.971 15.465,1.678C14.634,1.365 13.756,1.121 12.862,1.129ZM5.685,10.893C6.283,10.989 6.89,11.043 7.476,11.202C7.611,11.24 7.81,11.311 7.773,11.491C7.699,11.716 7.535,11.896 7.408,12.092C6.658,13.199 5.971,14.369 5.573,15.653C5.446,16.067 5.312,16.484 5.254,16.916C5.538,16.84 5.817,16.748 6.099,16.67C6.527,16.559 6.967,16.419 7.414,16.484C7.591,16.527 7.522,16.756 7.468,16.875C7.06,17.732 6.699,18.615 6.463,19.535C6.255,20.42 6.108,21.333 6.193,22.245C6.559,21.946 6.938,21.657 7.365,21.451C7.492,21.396 7.629,21.331 7.771,21.357C7.827,21.483 7.795,21.627 7.791,21.76C7.737,22.741 7.748,23.759 8.132,24.68C8.275,23.477 8.693,22.325 9.236,21.248C9.638,20.409 10.195,19.657 10.797,18.951C10.596,18.822 10.391,18.701 10.191,18.572C9.551,18.163 9.013,17.588 8.669,16.908C8.527,16.614 8.45,16.294 8.391,15.975C8.289,15.425 8.376,14.86 8.53,14.329C8.814,13.325 8.848,12.276 8.965,11.246C9.013,10.824 9.128,10.415 9.207,9.999C9.157,9.911 9.083,9.84 9.014,9.766C8.665,9.403 8.346,9.008 8.107,8.564C7.058,9.025 6.228,9.897 5.685,10.893ZM23.616,9.982C23.788,10.552 23.885,11.142 23.962,11.731C24.038,12.278 24.038,12.833 24.141,13.376C24.201,13.736 24.294,14.088 24.395,14.438C24.542,14.952 24.589,15.497 24.51,16.028C24.442,16.583 24.177,17.096 23.844,17.538C23.387,18.132 22.763,18.566 22.128,18.952C23.13,20.042 23.87,21.354 24.378,22.74C24.569,21.883 24.622,20.997 24.563,20.122C24.518,19.538 24.408,18.962 24.309,18.385C24.279,18.281 24.336,18.156 24.45,18.141C24.682,18.136 24.902,18.225 25.122,18.288C25.498,18.399 25.852,18.568 26.203,18.741C26.193,18.115 26.072,17.496 25.938,16.887C25.736,15.955 25.358,15.074 24.965,14.209C24.892,14.03 24.744,13.843 24.817,13.64C24.928,13.546 25.086,13.549 25.224,13.547C25.712,13.57 26.191,13.672 26.669,13.767C26.46,12.992 26.081,12.271 25.647,11.6C25.178,10.865 24.597,10.207 23.961,9.613C23.842,9.733 23.726,9.855 23.616,9.982Z" fill="#382551"/>
  <path d="M12.42,10.458C12.759,10.403 13.127,10.401 13.448,10.537C13.679,10.627 13.617,11.018 13.365,11.02C13.09,11.004 12.813,10.933 12.539,10.997C12.203,11.053 11.917,11.256 11.677,11.489C11.556,11.633 11.278,11.613 11.213,11.425C11.161,11.288 11.235,11.146 11.334,11.053C11.629,10.757 12.005,10.532 12.42,10.458Z" fill="#382551"/>
  <path d="M19.701,10.455C20.323,10.34 20.986,10.547 21.447,10.977C21.551,11.079 21.686,11.19 21.682,11.351C21.681,11.49 21.553,11.602 21.415,11.585C21.256,11.601 21.163,11.453 21.055,11.365C20.719,11.044 20.225,10.915 19.771,10.997C19.629,11.011 19.458,11.073 19.339,10.963C19.223,10.87 19.232,10.67 19.347,10.58C19.447,10.499 19.578,10.476 19.701,10.455Z" fill="#382551"/>
  <path d="M19.374,12.704C19.743,12.577 20.151,12.738 20.41,13.01C20.845,13.478 20.897,14.24 20.551,14.773C20.383,15.042 20.093,15.232 19.779,15.275C19.475,15.306 19.155,15.2 18.941,14.978C18.532,14.588 18.462,13.942 18.646,13.428C18.757,13.089 19.039,12.82 19.374,12.704Z" fill="#382551"/>
  <path d="M12.9,12.717C13.228,12.609 13.614,12.684 13.871,12.917C14.394,13.354 14.463,14.187 14.118,14.753C13.899,15.129 13.436,15.367 13.005,15.253C12.337,15.116 11.966,14.335 12.116,13.707C12.201,13.283 12.476,12.86 12.9,12.717Z" fill="#382551"/>
  <path d="M16.473,14.513C16.848,14.467 17.233,14.543 17.571,14.708C17.819,14.831 18.05,15.04 18.108,15.321C18.151,15.548 18.091,15.794 17.936,15.967C17.619,16.333 17.117,16.503 16.642,16.486C16.209,16.415 15.73,16.278 15.468,15.897C15.264,15.617 15.304,15.212 15.521,14.952C15.76,14.679 16.126,14.565 16.473,14.513Z" fill="#382551"/>
  <path d="M14.095,16.653C14.214,16.593 14.364,16.611 14.462,16.703C14.706,16.913 14.928,17.155 15.217,17.305C15.696,17.555 16.26,17.667 16.791,17.539C17.047,17.503 17.295,17.354 17.558,17.41C17.682,17.523 17.588,17.693 17.474,17.771C16.81,18.289 15.87,18.301 15.115,17.985C14.658,17.789 14.226,17.468 14.017,17.005C13.96,16.89 13.967,16.714 14.095,16.653Z" fill="#382551"/>
  <path d="M12.862,1.129C13.756,1.121 14.634,1.365 15.465,1.678C16.187,1.971 16.875,2.356 17.483,2.847C18.265,3.447 18.887,4.231 19.412,5.06C19.468,5.133 19.524,5.243 19.633,5.235C19.726,5.217 19.757,5.121 19.79,5.046C20.085,4.221 20.094,3.335 20.126,2.47C21.118,3.246 21.682,4.468 21.833,5.7C21.529,5.937 21.218,6.172 20.972,6.471C20.646,6.867 20.328,7.291 20.192,7.794C19.56,7.754 18.94,7.968 18.399,8.282C17.846,8.593 17.372,9.02 16.899,9.437C16.746,9.569 16.614,9.731 16.435,9.831C16.344,9.829 16.274,9.758 16.207,9.707C15.644,9.188 15.08,8.655 14.408,8.279C13.859,7.964 13.229,7.747 12.59,7.797C12.52,7.508 12.386,7.24 12.214,7C11.968,6.658 11.707,6.32 11.377,6.053C11.028,5.773 10.653,5.509 10.222,5.373C10.03,5.306 9.8,5.287 9.675,5.106C9.237,4.565 8.745,4.067 8.329,3.508C8.868,3.356 9.43,3.296 9.988,3.267C11.144,3.251 12.292,3.526 13.344,3.998C13.577,4.1 13.806,4.281 14.075,4.199C14.069,3.853 13.958,3.522 13.843,3.2C13.682,2.765 13.482,2.346 13.278,1.93C13.148,1.658 12.98,1.406 12.862,1.129Z" fill="#824EA2"/>
  <path d="M5.685,10.893C6.228,9.897 7.058,9.025 8.107,8.564C8.346,9.008 8.665,9.403 9.014,9.766C9.083,9.84 9.157,9.911 9.207,9.999C9.128,10.415 9.013,10.824 8.965,11.246C8.848,12.276 8.814,13.325 8.53,14.329C8.376,14.86 8.289,15.425 8.391,15.975C8.45,16.294 8.527,16.614 8.669,16.908C9.013,17.588 9.551,18.163 10.191,18.572C10.391,18.701 10.596,18.822 10.797,18.951C10.195,19.657 9.638,20.409 9.236,21.248C8.693,22.325 8.275,23.477 8.132,24.68C7.748,23.759 7.737,22.741 7.791,21.76C7.795,21.627 7.827,21.483 7.771,21.357C7.629,21.331 7.492,21.396 7.365,21.451C6.938,21.657 6.559,21.946 6.193,22.245C6.108,21.333 6.255,20.42 6.463,19.535C6.699,18.615 7.06,17.732 7.468,16.875C7.522,16.756 7.591,16.527 7.414,16.484C6.967,16.419 6.527,16.559 6.099,16.67C5.817,16.748 5.538,16.84 5.254,16.916C5.312,16.484 5.446,16.067 5.573,15.653C5.971,14.369 6.658,13.199 7.408,12.092C7.535,11.896 7.699,11.716 7.773,11.491C7.81,11.311 7.611,11.24 7.476,11.202C6.89,11.043 6.283,10.989 5.685,10.893Z" fill="#824EA2"/>
  <path d="M23.616,9.982C23.726,9.855 23.842,9.733 23.961,9.613C24.597,10.207 25.178,10.865 25.647,11.6C26.081,12.271 26.46,12.992 26.669,13.767C26.191,13.672 25.712,13.57 25.224,13.547C25.086,13.549 24.928,13.546 24.817,13.64C24.744,13.843 24.892,14.03 24.965,14.209C25.358,15.074 25.736,15.955 25.938,16.887C26.072,17.496 26.193,18.115 26.203,18.741C25.852,18.568 25.498,18.399 25.122,18.288C24.902,18.225 24.682,18.136 24.45,18.141C24.336,18.156 24.279,18.281 24.309,18.385C24.408,18.962 24.518,19.538 24.563,20.122C24.622,20.997 24.569,21.883 24.378,22.74C23.87,21.354 23.13,20.042 22.128,18.952C22.763,18.566 23.387,18.132 23.844,17.538C24.177,17.096 24.442,16.583 24.51,16.028C24.589,15.497 24.542,14.952 24.395,14.438C24.294,14.088 24.201,13.736 24.141,13.376C24.038,12.833 24.038,12.278 23.962,11.731C23.885,11.142 23.788,10.552 23.616,9.982Z" fill="#824EA2"/>
  <path d="M8.492,6.378C8.651,6.086 9,5.965 9.314,5.939C9.729,5.914 10.134,6.063 10.493,6.258C10.995,6.54 11.401,6.957 11.794,7.371C11.944,7.522 12.066,7.712 12.257,7.816C12.368,7.824 12.479,7.805 12.59,7.797C13.229,7.747 13.859,7.964 14.408,8.279C15.08,8.655 15.644,9.188 16.207,9.707C16.274,9.758 16.344,9.829 16.435,9.831C16.614,9.731 16.746,9.569 16.899,9.437C17.372,9.02 17.846,8.593 18.399,8.282C18.94,7.968 19.56,7.754 20.192,7.794C20.32,7.8 20.448,7.831 20.576,7.81C20.784,7.668 20.907,7.436 21.087,7.263C21.539,6.806 22.002,6.321 22.614,6.085C23.081,5.896 23.658,5.857 24.086,6.161C24.316,6.312 24.379,6.602 24.392,6.858C24.412,7.418 24.19,7.958 23.89,8.42C23.646,8.765 23.389,9.106 23.069,9.386C22.971,9.476 22.859,9.556 22.78,9.664C22.797,9.802 22.854,9.929 22.896,10.061C23.227,11.033 23.339,12.061 23.421,13.079C23.451,13.659 23.579,14.228 23.715,14.791C23.797,15.125 23.851,15.474 23.79,15.817C23.683,16.542 23.21,17.151 22.667,17.615C22.273,17.927 21.843,18.195 21.389,18.409C21.236,18.484 21.072,18.537 20.929,18.629C20.878,18.658 20.87,18.751 20.914,18.789C21.013,18.9 21.132,18.99 21.239,19.092C21.959,19.759 22.529,20.575 22.986,21.441C23.388,22.167 23.688,22.948 23.908,23.748C24.043,24.25 24.138,24.763 24.166,25.282C24.164,25.682 24.069,26.105 23.795,26.41C23.638,26.581 23.432,26.732 23.192,26.75C23.132,26.729 23.091,26.674 23.081,26.612C23.041,26.397 23.088,26.175 23.044,25.961C23.003,25.865 22.859,25.855 22.798,25.935C22.549,26.163 22.231,26.415 21.87,26.32C22.015,25.677 22.143,25.025 22.152,24.363C22.148,23.453 21.941,22.545 21.551,21.722C21.487,21.573 21.34,21.447 21.17,21.475C21.004,21.476 20.859,21.641 20.901,21.806C20.962,22.056 21.093,22.282 21.167,22.528C21.32,23.014 21.421,23.518 21.471,24.026C21.513,24.708 21.397,25.392 21.198,26.043C21.14,26.246 21.062,26.463 21.13,26.674C21.183,26.858 21.362,26.956 21.513,27.053C21.421,27.776 21.301,28.498 21.081,29.194C21.065,29.284 21.005,29.39 21.07,29.473C21.283,29.772 21.602,29.992 21.77,30.326C21.83,30.425 21.769,30.549 21.67,30.594C21.343,30.773 20.961,30.787 20.597,30.818C20.014,30.852 19.418,30.806 18.858,30.628C18.636,30.558 18.409,30.438 18.302,30.22C18.025,29.696 18.03,29.085 17.99,28.509C17.99,28.428 17.94,28.343 17.849,28.354C17.415,28.323 16.981,28.364 16.546,28.358C16.065,28.356 15.583,28.355 15.102,28.376C14.955,28.38 14.962,28.548 14.958,28.654C14.944,29.143 14.904,29.643 14.713,30.1C14.634,30.294 14.489,30.461 14.298,30.552C13.889,30.755 13.426,30.794 12.978,30.826C12.503,30.841 12.019,30.831 11.559,30.703C11.411,30.652 11.222,30.605 11.168,30.438C11.181,30.297 11.271,30.182 11.356,30.075C11.541,29.851 11.742,29.641 11.931,29.42C11.796,29.009 11.68,28.591 11.606,28.165C11.543,27.795 11.457,27.427 11.434,27.05C11.589,26.964 11.776,26.887 11.849,26.713C11.936,26.493 11.861,26.258 11.791,26.045C11.601,25.489 11.498,24.901 11.489,24.314C11.512,23.533 11.705,22.764 11.995,22.042C12.036,21.91 12.127,21.763 12.053,21.627C11.966,21.447 11.703,21.436 11.557,21.546C11.47,21.626 11.423,21.737 11.372,21.842C10.928,22.873 10.713,24.021 10.875,25.14C10.916,25.545 11.045,25.934 11.095,26.338C10.955,26.333 10.81,26.333 10.681,26.273C10.497,26.196 10.357,26.049 10.2,25.931C10.132,25.864 10.031,25.895 9.946,25.892C9.906,26.182 9.947,26.481 9.869,26.767C9.356,26.704 9,26.237 8.888,25.761C8.776,25.249 8.861,24.721 8.952,24.212C9.166,23.241 9.521,22.301 9.989,21.424C10.492,20.451 11.156,19.553 11.985,18.834C12.086,18.775 12.068,18.619 11.952,18.591C11.125,18.25 10.311,17.801 9.728,17.106C9.371,16.706 9.167,16.188 9.087,15.663C9.014,15.128 9.227,14.617 9.315,14.098C9.496,13.307 9.491,12.489 9.605,11.688C9.674,11.149 9.766,10.61 9.94,10.094C9.984,9.952 10.046,9.813 10.053,9.663C9.929,9.507 9.765,9.389 9.624,9.249C9.127,8.759 8.673,8.187 8.48,7.504C8.383,7.14 8.318,6.731 8.492,6.378ZM12.42,10.458C12.005,10.532 11.629,10.757 11.334,11.053C11.235,11.146 11.161,11.288 11.213,11.425C11.278,11.613 11.556,11.633 11.677,11.489C11.917,11.256 12.203,11.053 12.539,10.997C12.813,10.933 13.09,11.004 13.365,11.02C13.617,11.018 13.679,10.627 13.448,10.537C13.127,10.401 12.759,10.403 12.42,10.458ZM19.701,10.455C19.578,10.476 19.447,10.499 19.347,10.58C19.232,10.67 19.223,10.87 19.339,10.963C19.458,11.073 19.629,11.011 19.771,10.997C20.225,10.915 20.719,11.044 21.055,11.365C21.163,11.453 21.256,11.601 21.415,11.585C21.553,11.602 21.681,11.49 21.682,11.351C21.686,11.19 21.551,11.079 21.447,10.977C20.986,10.547 20.323,10.34 19.701,10.455ZM12.696,11.688C12.272,11.735 11.883,11.967 11.606,12.286C10.96,13.063 10.855,14.253 11.351,15.132C11.645,15.584 12.14,15.93 12.688,15.962C13.174,16.014 13.666,15.809 14.005,15.464C14.309,15.139 14.517,14.725 14.588,14.285C14.689,13.791 14.584,13.279 14.404,12.815C14.111,12.166 13.445,11.602 12.696,11.688ZM19.684,11.728C19.112,11.864 18.654,12.326 18.451,12.869C18.21,13.454 18.171,14.128 18.404,14.722C18.595,15.304 19.096,15.77 19.687,15.926C20.45,16.115 21.301,15.683 21.621,14.971C21.852,14.527 21.894,14.008 21.814,13.52C21.715,12.865 21.352,12.229 20.774,11.885C20.445,11.708 20.049,11.634 19.684,11.728ZM16.473,14.513C16.126,14.565 15.76,14.679 15.521,14.952C15.304,15.212 15.264,15.617 15.468,15.897C15.73,16.278 16.209,16.415 16.642,16.486C17.117,16.503 17.619,16.333 17.936,15.967C18.091,15.794 18.151,15.548 18.108,15.321C18.05,15.04 17.819,14.831 17.571,14.708C17.233,14.543 16.848,14.467 16.473,14.513ZM14.095,16.653C13.967,16.714 13.96,16.89 14.017,17.005C14.226,17.468 14.658,17.789 15.115,17.985C15.87,18.301 16.81,18.289 17.474,17.771C17.588,17.693 17.682,17.523 17.558,17.41C17.295,17.354 17.047,17.503 16.791,17.539C16.26,17.667 15.696,17.555 15.217,17.305C14.928,17.155 14.706,16.913 14.462,16.703C14.364,16.611 14.214,16.593 14.095,16.653ZM16.13,20.239C15.419,20.351 14.776,20.773 14.347,21.346C13.733,22.135 13.423,23.13 13.38,24.123C13.363,24.785 13.434,25.483 13.786,26.059C14.186,26.767 14.941,27.233 15.731,27.379C16.722,27.566 17.82,27.461 18.66,26.865C19.318,26.389 19.684,25.597 19.747,24.8C19.816,23.861 19.637,22.895 19.184,22.065C18.911,21.519 18.525,21.019 18.01,20.681C17.475,20.294 16.783,20.117 16.13,20.239Z" fill="#B778D0"/>
</svg>
